<svg xmlns="http://www.w3.org/2000/svg" xmlns:xlink="http://www.w3.org/1999/xlink" width="48" height="42" viewBox="0 0 48 42">
  <defs>
    <filter id="Rectangle_11" x="0" y="0" width="48" height="42" filterUnits="userSpaceOnUse">
      <feOffset dx="2" dy="4" input="SourceAlpha"/>
      <feGaussianBlur stdDeviation="3" result="blur"/>
      <feFlood flood-color="#e7540a" flood-opacity="0.569"/>
      <feComposite operator="in" in2="blur"/>
      <feComposite in="SourceGraphic"/>
    </filter>
  </defs>
  <g id="camera_home_icon" transform="translate(-31 -39)">
    <g id="Camera_" data-name="Camera " transform="translate(38 44)">
      <g id="Rectangle_10" data-name="Rectangle 10" transform="translate(31 5)" fill="#fff" stroke-linecap="round" stroke-linejoin="round" stroke-miterlimit="10">
        <path d="M 5.5 15.13681030273438 L 4.662089824676514 14.36853981018066 L -0.337909996509552 9.784070014953613 L -0.5 9.635439872741699 L -0.5 9.415530204772949 L -0.5 4.515530109405518 L -0.5 4.293360233306885 L -0.3351199924945831 4.144460201263428 L 4.66487979888916 -0.371069997549057 L 5.5 -1.125270009040833 L 5.5 -8.881784197001252e-16 L 5.5 14 L 5.5 15.13681030273438 Z" stroke="none"/>
        <path d="M 5 0 L 0 4.515529632568359 L 0 9.415530204772949 L 5 14 L 5 0 M 5.000198364257813 -1.000020027160645 C 5.137474060058594 -1.000020027160645 5.275687694549561 -0.9717769622802734 5.406060218811035 -0.9138498306274414 C 5.767230033874512 -0.7533702850341797 6 -0.3952198028564453 6 0 L 6 14 C 6 14.39659023284912 5.765629768371582 14.75570011138916 5.402609825134277 14.91536998748779 C 5.273231983184814 14.97227382659912 5.136197090148926 15.00001811981201 5.000202178955078 15.00001811981201 C 4.754600048065186 15.00001811981201 4.512321949005127 14.90957164764404 4.324180126190186 14.73707008361816 L -0.6758198738098145 10.15260028839111 C -0.882390022277832 9.963190078735352 -1 9.695789337158203 -1 9.415530204772949 L -1 4.515529632568359 C -1 4.232640266418457 -0.8801798820495605 3.962989807128906 -0.6702399253845215 3.773380279541016 L 4.329760074615479 -0.7421503067016602 C 4.517202854156494 -0.9114246368408203 4.757169723510742 -1.000020027160645 5.000198364257813 -1.000020027160645 Z" stroke="none" fill="#fff"/>
      </g>
      <g transform="matrix(1, 0, 0, 1, -7, -5)" filter="url(#Rectangle_11)">
        <path id="Rectangle_11-2" data-name="Rectangle 11" d="M24,24H6a6.007,6.007,0,0,1-6-6V6A6.007,6.007,0,0,1,6,0H24a6.007,6.007,0,0,1,6,6V18A6.007,6.007,0,0,1,24,24ZM11.667,16.429a1,1,0,1,0,0,2h8.667a1,1,0,1,0,0-2Zm-5.333,0a1,1,0,1,0,0,2H7.889a1,1,0,1,0,0-2Z" transform="translate(7 5)" fill="#fff"/>
      </g>
    </g>
  </g>
</svg>
