<svg xmlns="http://www.w3.org/2000/svg" xmlns:xlink="http://www.w3.org/1999/xlink" width="129.648" height="212" viewBox="0 0 129.648 212">
  <defs>
    <linearGradient id="linear-gradient" x1="0.25" y1="0.586" x2="1" y2="0.586" gradientUnits="objectBoundingBox">
      <stop offset="0" stop-color="#34b16e"/>
      <stop offset="1" stop-color="#2dbb71"/>
    </linearGradient>
    <filter id="Path_9" x="45.509" y="0" width="57.482" height="87.143" filterUnits="userSpaceOnUse">
      <feOffset dx="2" dy="3" input="SourceAlpha"/>
      <feGaussianBlur stdDeviation="5" result="blur"/>
      <feFlood flood-opacity="0.18"/>
      <feComposite operator="in" in2="blur"/>
      <feComposite in="SourceGraphic"/>
    </filter>
    <linearGradient id="linear-gradient-2" x1="0.349" y1="0.329" x2="0.607" y2="0.816" gradientUnits="objectBoundingBox">
      <stop offset="0.001" stop-color="#1cb9a1"/>
      <stop offset="0.999" stop-color="#26927b"/>
    </linearGradient>
    <linearGradient id="linear-gradient-3" x1="0.913" y1="0.049" x2="0.233" y2="0.879" gradientUnits="objectBoundingBox">
      <stop offset="0.001" stop-color="#22d4b9"/>
      <stop offset="0.999" stop-color="#26927b"/>
    </linearGradient>
    <linearGradient id="linear-gradient-4" x1="0.5" x2="0.5" y2="1" gradientUnits="objectBoundingBox">
      <stop offset="0.001" stop-color="#23d2b7"/>
      <stop offset="0.999" stop-color="#26927b"/>
    </linearGradient>
    <filter id="Path_7" x="1.195" y="86.229" width="91.248" height="107.544" filterUnits="userSpaceOnUse">
      <feOffset dx="1" dy="4" input="SourceAlpha"/>
      <feGaussianBlur stdDeviation="5" result="blur-2"/>
      <feFlood flood-opacity="0.282"/>
      <feComposite operator="in" in2="blur-2"/>
      <feComposite in="SourceGraphic"/>
    </filter>
    <linearGradient id="linear-gradient-5" x1="0.935" y1="-0.072" x2="0.326" y2="1" gradientUnits="objectBoundingBox">
      <stop offset="0" stop-color="#23d3b8"/>
      <stop offset="0.999" stop-color="#26927b"/>
    </linearGradient>
    <filter id="Path_7_Copy_3" x="57.59" y="128.409" width="72.058" height="64.364" filterUnits="userSpaceOnUse">
      <feOffset dx="2" dy="3" input="SourceAlpha"/>
      <feGaussianBlur stdDeviation="5" result="blur-3"/>
      <feFlood flood-opacity="0.502"/>
      <feComposite operator="in" in2="blur-3"/>
      <feComposite in="SourceGraphic"/>
    </filter>
    <linearGradient id="linear-gradient-6" x1="1.212" y1="-0.288" x2="0.219" y2="0.703" gradientUnits="objectBoundingBox">
      <stop offset="0" stop-color="#e3e3e3"/>
      <stop offset="1" stop-color="#b9b9b9"/>
    </linearGradient>
  </defs>
  <g id="flower_icon" transform="translate(-0.188 12)">
    <g id="Group_4" data-name="Group 4" transform="translate(37)">
      <path id="Path_10" data-name="Path 10" d="M20.25,57.143,0,0H61.411s-.679,12.954-2,26-11,31-11,31Z" transform="translate(24.589)" fill="url(#linear-gradient)"/>
      <g transform="matrix(1, 0, 0, 1, -36.81, -12)" filter="url(#Path_9)">
        <path id="Path_9-2" data-name="Path 9" d="M5.786,57.143,0,0H27.482a204.615,204.615,0,0,1-2.893,28.571,223.223,223.223,0,0,1-7.232,28.571Z" transform="translate(58.51 12)" fill="#2fcd76"/>
      </g>
      <path id="Path_8" data-name="Path 8" d="M84,0,4.991.134A5,5,0,0,0,0,5.134V143H84Z" transform="translate(0 57)" fill="#e9e9e9"/>
    </g>
    <g id="Group_2" data-name="Group 2" transform="translate(0 74)">
      <path id="Path_7_Copy" data-name="Path 7 Copy" d="M17.333,48.682H53.444S51.36,36.593,37.556,22.909L6.845,1.732a3.679,3.679,0,0,0-4.678.416l-.1.1a4,4,0,0,0-.755,4.642L13,30.068A77.013,77.013,0,0,1,17.333,48.682Z" transform="translate(1.444 40.091)" fill="url(#linear-gradient-2)"/>
      <path id="Path_7_Copy_2" data-name="Path 7 Copy 2" d="M-21.887,88.773H-65.22s3.673-34.34,21.667-57.273L-6.712,1.91a3.417,3.417,0,0,1,4.545.237l.235.233A4,4,0,0,1-1.07,6.8L-19,48.682C-24.4,63.056-21.887,88.773-21.887,88.773Z" transform="translate(111.443)" fill="url(#linear-gradient-3)"/>
      <g transform="matrix(1, 0, 0, 1, 0.19, -86)" filter="url(#Path_7)">
        <path id="Path_7-2" data-name="Path 7" d="M28.889,78.75H62.111s2.1-18.59-15.889-41.523L6.614,2.027a3.25,3.25,0,0,0-4.447.121l-.044.044a4,4,0,0,0-.707,4.736l21.7,40.323C28.513,61.624,28.889,78.75,28.889,78.75Z" transform="translate(14.26 96.02)" fill="url(#linear-gradient-4)"/>
      </g>
      <g transform="matrix(1, 0, 0, 1, 0.19, -86)" filter="url(#Path_7_Copy_3)">
        <path id="Path_7_Copy_3-2" data-name="Path 7 Copy 3" d="M-14.444,34.364H-44.778S-42.694,28-28.889,14.318-8.667,0-5.778,0h0A10.331,10.331,0,0,1-4.213,12.687l-4.454,7.358A77.659,77.659,0,0,0-14.444,34.364Z" transform="translate(115.37 140.41)" fill="url(#linear-gradient-5)"/>
      </g>
      <path id="Path_6" data-name="Path 6" d="M3.889,37.227.213,4.857a4,4,0,0,1,1.1-3.236l.394-.406A4,4,0,0,1,4.582,0H121V37.227Z" transform="translate(0 88.773)" fill="url(#linear-gradient-6)"/>
    </g>
  </g>
</svg>
